<svg xmlns="http://www.w3.org/2000/svg" viewBox="0 0 407.9 506.69" version="1">
  <g fill-rule="evenodd">
    <path d="M386.38 38.15l-89.99 85.1 95.86 123.25 15.65 177.04-89.99-82.16 15.65-70.43-53.8-163.35 106.62-69.45z" fill="#006680"/>
    <path d="M270.95 159.44L152.6 234.76l.97-5.87 49.89-52.82 67.49-16.63z" fill="#0cf"/>
    <path d="M194.7 183.89l75.32-22.5 64.56 113.47-46.95-168.24-42.06 25.43-50.87 51.84z" fill="#08a"/>
    <path d="M385.4 40.1l-138.9 92.93L179.98 1.95 385.4 40.1z" fill="#aef"/>
    <path d="M179.01 0l67.49 133.03-93.9 97.81L179.01 0z" fill="#5df"/>
    <path d="M226.94 391.26l-49.89 35.22-89.99-121.29 71.41-59.67 68.47 145.74z" fill="#08a"/>
    <path d="M86.08 305.19L0 395.18l179.01 31.3-92.93-121.29zM270.95 159.44l66.52 120.31-134.99 80.21-48.91-125.2 117.38-75.32z" fill="#aef"/>
    <path d="M336.49 278.77l-134.01 81.19 75.32 146.72 58.69-227.91z" fill="#00aad4"/>
    <path d="M149.93 252.08l-65.73 54 95.05 121.38S142.1 304.9 149.93 252.08z" fill="#5df"/>
  </g>
</svg>
