<svg xmlns="http://www.w3.org/2000/svg" viewBox="0 0 640.35 983.87" version="1">
  <g fill-rule="evenodd">
    <path d="M386.38 38.149l-90 85.105 95.86 123.24 15.66 177.05-90-82.16 15.65-70.43-53.79-163.36 106.62-69.445z" fill="#a46c6e"/>
    <path d="M270.95 159.444l-118.36 75.32.98-5.87 49.89-52.82 67.49-16.63z" fill="#d8b3a8"/>
    <path d="M194.7 183.894l75.32-22.5 64.56 113.47-46.96-168.24-42.06 25.43-50.86 51.84z" fill="#b98479"/>
    <path d="M385.4 40.105l-138.9 92.929-66.52-131.08L385.4 40.105z" fill="#f0d7c8"/>
    <path d="M179 0l67.5 133.03-93.91 97.81L179 0z" fill="#ebcdb9"/>
    <path d="M226.93 391.264l-49.88 35.22-89.99-121.3 71.4-59.66 68.47 145.74z" fill="#b98479"/>
    <path d="M86.08 305.184l-86.08 90 179 31.3-92.92-121.3zM270.95 159.444l66.52 120.31-134.99 80.21-48.91-125.2 117.38-75.32z" fill="#f0d7c8"/>
    <path d="M336.49 278.774l-134.01 81.19 75.32 146.73 58.69-227.92z" fill="#d8b3a8"/>
    <path d="M149.93 252.084l-65.73 54 95.05 121.38s-37.15-122.56-29.32-175.38z" fill="#ebcdb9"/>
    <g>
      <path d="M618.83 515.334l-89.99 85.1 95.86 123.25 15.65 177.04-89.99-82.16 15.65-70.43-53.8-163.35 106.62-69.45z" fill="#006680"/>
      <path d="M503.4 636.624l-118.35 75.32.97-5.87 49.89-52.82 67.49-16.63z" fill="#0cf"/>
      <path d="M427.15 661.074l75.32-22.5 64.56 113.47-46.95-168.24-42.06 25.43-50.87 51.84z" fill="#08a"/>
      <path d="M617.85 517.284l-138.9 92.93-66.52-131.08 205.42 38.15z" fill="#aef"/>
      <path d="M411.46 477.184l67.49 133.03-93.9 97.81 26.41-230.84z" fill="#5df"/>
      <path d="M459.39 868.444l-49.89 35.22-89.99-121.29 71.41-59.67 68.47 145.74z" fill="#08a"/>
      <path d="M318.53 782.374l-86.08 89.99 179.01 31.3-92.93-121.29zM503.4 636.624l66.52 120.31-134.99 80.21-48.91-125.2 117.38-75.32z" fill="#aef"/>
      <path d="M568.94 755.954l-134.01 81.19 75.32 146.72 58.69-227.91z" fill="#00aad4"/>
      <path d="M382.38 729.264l-65.73 54 95.05 121.38s-37.15-122.56-29.32-175.38z" fill="#5df"/>
    </g>
  </g>
</svg>
